<svg version="1.1" xmlns="http://www.w3.org/2000/svg" viewBox="0 0 970.2469755086111 372.3324353243273" width="1940.4939510172221" height="744.6648706486546">
  <!-- svg-source:excalidraw -->
  
  <defs>
    <style class="style-fonts">
      @font-face {
        font-family: "Virgil";
        src: url("https://excalidraw.com/Virgil.woff2");
      }
      @font-face {
        font-family: "Cascadia";
        src: url("https://excalidraw.com/Cascadia.woff2");
      }
      @font-face {
        font-family: "Assistant";
        src: url("https://excalidraw.com/Assistant-Regular.woff2");
      }
    </style>
    
  </defs>
  <g stroke-linecap="round" transform="translate(726.6309442424663 194.00058629784695) rotate(0 116.80801563307244 35.43613957407811)"><path d="M17.72 0 C86.26 -2.44, 157.73 -2.14, 215.9 0 M17.72 0 C90.6 0.54, 164.85 -0.91, 215.9 0 M215.9 0 C228.97 1.4, 235.23 6.57, 233.62 17.72 M215.9 0 C227.81 -0.05, 233.55 6.08, 233.62 17.72 M233.62 17.72 C232.01 24.63, 232.35 31.01, 233.62 53.15 M233.62 17.72 C232.49 30.47, 234 42.74, 233.62 53.15 M233.62 53.15 C235.1 64.2, 227.96 70.55, 215.9 70.87 M233.62 53.15 C235.61 66.22, 229.34 69.17, 215.9 70.87 M215.9 70.87 C138.89 68.71, 62.21 70, 17.72 70.87 M215.9 70.87 C167.47 69.99, 118.31 69.24, 17.72 70.87 M17.72 70.87 C6.56 69.6, -1.69 64.51, 0 53.15 M17.72 70.87 C4.01 72.41, -2.03 64.47, 0 53.15 M0 53.15 C-1.77 43.24, 1.66 34.06, 0 17.72 M0 53.15 C0.04 42.73, -0.47 32.74, 0 17.72 M0 17.72 C1.69 4.26, 6.64 0.1, 17.72 0 M0 17.72 C0.19 4.33, 7.22 0.08, 17.72 0" stroke="#1971c2" stroke-width="2" fill="none"></path></g><g transform="translate(800.9489581970718 216.9367258719251) rotate(0 42.4900016784668 12.5)"><text x="42.4900016784668" y="0" font-family="Virgil, Segoe UI Emoji" font-size="20px" fill="#1971c2" text-anchor="middle" style="white-space: pre;" direction="ltr" dominant-baseline="text-before-edge">style.css</text></g><g stroke-linecap="round" transform="translate(725.3184946286115 291.4601561761711) rotate(0 116.80801563307242 35.43613957407811)"><path d="M17.72 0 C79.48 1.05, 143.71 1, 215.9 0 M17.72 0 C89.03 1.79, 161.26 2.78, 215.9 0 M215.9 0 C228.25 0.98, 234.99 5.62, 233.62 17.72 M215.9 0 C228.5 -1.47, 233.93 6.89, 233.62 17.72 M233.62 17.72 C232.11 24.63, 234.86 32.45, 233.62 53.15 M233.62 17.72 C234.21 24.85, 233.14 32.19, 233.62 53.15 M233.62 53.15 C235.02 66.61, 226.52 72.46, 215.9 70.87 M233.62 53.15 C233.77 64.3, 228.16 69.9, 215.9 70.87 M215.9 70.87 C150.32 69.59, 89.09 69.7, 17.72 70.87 M215.9 70.87 C137.05 71.17, 58.98 69.69, 17.72 70.87 M17.72 70.87 C6.3 70.38, -0.87 65.07, 0 53.15 M17.72 70.87 C7.4 71.14, 1.02 64.2, 0 53.15 M0 53.15 C0.18 45.73, -2.12 36.83, 0 17.72 M0 53.15 C-0.63 43.82, -0.33 36.57, 0 17.72 M0 17.72 C0.51 4.38, 6.27 -0.53, 17.72 0 M0 17.72 C0.57 4.16, 5.43 0.67, 17.72 0" stroke="#e8590c" stroke-width="2" fill="none"></path></g><g transform="translate(770.3465114823871 314.39629575024924) rotate(0 71.77999877929688 12.5)"><text x="71.77999877929688" y="0" font-family="Virgil, Segoe UI Emoji" font-size="20px" fill="#e8590c" text-anchor="middle" style="white-space: pre;" direction="ltr" dominant-baseline="text-before-edge">flavour-pickr.js</text></g><g stroke-linecap="round" transform="translate(372.2695485016848 14.194989199746715) rotate(0 116.80801563307244 35.43613957407811)"><path d="M17.72 0 C89.25 -2.49, 157.07 -0.57, 215.9 0 M17.72 0 C76.16 0.65, 132.85 1.32, 215.9 0 M215.9 0 C227.69 0.87, 235.56 6.56, 233.62 17.72 M215.9 0 C227.99 -1.75, 231.67 5.67, 233.62 17.72 M233.62 17.72 C235.76 26.05, 235.46 38.8, 233.62 53.15 M233.62 17.72 C234.06 26.26, 234.42 35.94, 233.62 53.15 M233.62 53.15 C234.65 66.53, 227.41 70.83, 215.9 70.87 M233.62 53.15 C232.12 62.91, 229.06 71.37, 215.9 70.87 M215.9 70.87 C157.86 71.08, 103.11 70.98, 17.72 70.87 M215.9 70.87 C141.4 69.32, 66.47 70.88, 17.72 70.87 M17.72 70.87 C4.21 72.41, -0.03 63.68, 0 53.15 M17.72 70.87 C5.35 68.68, 1.8 65.8, 0 53.15 M0 53.15 C-1.47 39.04, -0.74 25.15, 0 17.72 M0 53.15 C0.49 44.61, -0.2 35.65, 0 17.72 M0 17.72 C0 6.16, 6.36 -1.79, 17.72 0 M0 17.72 C1.34 3.65, 8.19 -0.06, 17.72 0" stroke="#099268" stroke-width="2" fill="none"></path></g><g transform="translate(441.99756611839985 37.13112877382483) rotate(0 47.07999801635742 12.5)"><text x="47.07999801635742" y="0" font-family="Virgil, Segoe UI Emoji" font-size="20px" fill="#099268" text-anchor="middle" style="white-space: pre;" direction="ltr" dominant-baseline="text-before-edge">colors.css</text></g><g stroke-linecap="round"><g transform="translate(609.822928609394 46.82160677311862) rotate(0 54.46665897497198 91.30755954940318)"><path d="M0.9 1.02 C11.78 4.36, 56.24 -7.62, 65.25 20.94 C74.26 49.49, 47.75 145.25, 54.95 172.36 C62.16 199.47, 99.56 181.98, 108.47 183.58" stroke="#1e1e1e" stroke-width="2.5" fill="none" stroke-dasharray="8 10"></path></g><g transform="translate(609.822928609394 46.82160677311862) rotate(0 54.46665897497198 91.30755954940318)"><path d="M86.41 195.33 C94.64 191.02, 101.35 190.02, 108.47 183.58" stroke="#1e1e1e" stroke-width="2.5" fill="none"></path></g><g transform="translate(609.822928609394 46.82160677311862) rotate(0 54.46665897497198 91.30755954940318)"><path d="M84.02 178.4 C93.09 179.15, 100.51 183.23, 108.47 183.58" stroke="#1e1e1e" stroke-width="2.5" fill="none"></path></g></g><mask></mask><g stroke-linecap="round" transform="translate(376.545195796322 111.316260624998) rotate(0 116.80801563307244 35.43613957407811)"><path d="M17.72 0 C86.82 -0.01, 152.5 -0.67, 215.9 0 M17.72 0 C87.35 -0.74, 157.15 0.18, 215.9 0 M215.9 0 C228.07 1.35, 232.61 7.62, 233.62 17.72 M215.9 0 C229.09 0.85, 233.38 7.36, 233.62 17.72 M233.62 17.72 C235.56 26.71, 235.84 34.91, 233.62 53.15 M233.62 17.72 C233.13 28.11, 233.97 38.18, 233.62 53.15 M233.62 53.15 C235 65.94, 227.32 68.9, 215.9 70.87 M233.62 53.15 C235.17 65.2, 225.76 69.8, 215.9 70.87 M215.9 70.87 C148.31 72.92, 82.85 73.55, 17.72 70.87 M215.9 70.87 C148.75 71.7, 81.09 71.79, 17.72 70.87 M17.72 70.87 C4.08 72.32, 1.2 64.6, 0 53.15 M17.72 70.87 C4.7 73.13, 0.38 63.22, 0 53.15 M0 53.15 C-2.07 42.62, 0.22 34.24, 0 17.72 M0 53.15 C0.75 44.23, 0.38 36.84, 0 17.72 M0 17.72 C0.87 5.58, 7.89 1.94, 17.72 0 M0 17.72 C1.27 5, 4.24 2, 17.72 0" stroke="#6741d9" stroke-width="2" fill="none"></path></g><g transform="translate(444.9132089879882 134.25240019907608) rotate(0 48.44000244140625 12.5)"><text x="48.44000244140625" y="0" font-family="Virgil, Segoe UI Emoji" font-size="20px" fill="#6741d9" text-anchor="middle" style="white-space: pre;" direction="ltr" dominant-baseline="text-before-edge">basics.css</text></g><g stroke-linecap="round" transform="translate(378.83179657095855 205.81263282253963) rotate(0 116.80801563307244 35.43613957407811)"><path d="M17.72 0 C91.56 0.58, 166.08 -1.76, 215.9 0 M17.72 0 C63.6 -0.57, 109.94 1.08, 215.9 0 M215.9 0 C226.85 0.01, 232.56 5.48, 233.62 17.72 M215.9 0 C225.96 2.19, 234.33 6.68, 233.62 17.72 M233.62 17.72 C233.56 27.75, 235.29 35.86, 233.62 53.15 M233.62 17.72 C233.36 27.57, 232.94 36.73, 233.62 53.15 M233.62 53.15 C232.3 66.57, 225.92 72.51, 215.9 70.87 M233.62 53.15 C231.64 66.49, 227.37 69.42, 215.9 70.87 M215.9 70.87 C160.25 70.08, 108.57 68.08, 17.72 70.87 M215.9 70.87 C144.67 70.95, 74.19 70.22, 17.72 70.87 M17.72 70.87 C5.1 71.39, 1.34 64.18, 0 53.15 M17.72 70.87 C4.91 68.84, 1.28 63.04, 0 53.15 M0 53.15 C1.32 41.17, -0.24 28.4, 0 17.72 M0 53.15 C0.93 44.17, 0.4 37.29, 0 17.72 M0 17.72 C0.74 7.14, 4.05 -1.64, 17.72 0 M0 17.72 C-0.13 7.11, 5.88 -1.19, 17.72 0" stroke="#c2255c" stroke-width="2" fill="none"></path></g><g transform="translate(436.7298123566189 228.7487723966177) rotate(0 58.90999984741211 12.5)"><text x="58.90999984741211" y="0" font-family="Virgil, Segoe UI Emoji" font-size="20px" fill="#c2255c" text-anchor="middle" style="white-space: pre;" direction="ltr" dominant-baseline="text-before-edge">beautify.css</text></g><g stroke-linecap="round"><g transform="translate(613.2213283436863 144.25699231857897) rotate(0 55.6099593622902 43.519560340678)"><path d="M1.15 0.18 C10.01 -0.2, 44.23 -16.74, 52.9 -2.24 C61.58 12.27, 43.64 72.2, 53.18 87.19 C62.71 102.18, 100.6 87.9, 110.1 87.69" stroke="#1e1e1e" stroke-width="2.5" fill="none" stroke-dasharray="8 10"></path></g><g transform="translate(613.2213283436863 144.25699231857897) rotate(0 55.6099593622902 43.519560340678)"><path d="M88.64 100.51 C94.92 97.98, 98.71 92.67, 110.1 87.69" stroke="#1e1e1e" stroke-width="2.5" fill="none"></path></g><g transform="translate(613.2213283436863 144.25699231857897) rotate(0 55.6099593622902 43.519560340678)"><path d="M85.42 83.72 C92.6 85.83, 97.3 85.21, 110.1 87.69" stroke="#1e1e1e" stroke-width="2.5" fill="none"></path></g></g><mask></mask><g stroke-linecap="round"><g transform="translate(621.6349751340865 239.936322782763) rotate(0 50.52931013340773 -3.937348841564244)"><path d="M-0.44 0.98 C16.23 -0.53, 84.2 -6.55, 101 -8.11" stroke="#1e1e1e" stroke-width="2.5" fill="none" stroke-dasharray="8 10"></path></g><g transform="translate(621.6349751340865 239.936322782763) rotate(0 50.52931013340773 -3.937348841564244)"><path d="M78.37 2.52 C88.51 -1.53, 95.07 -6.66, 101 -8.11" stroke="#1e1e1e" stroke-width="2.5" fill="none"></path></g><g transform="translate(621.6349751340865 239.936322782763) rotate(0 50.52931013340773 -3.937348841564244)"><path d="M76.83 -14.51 C87.69 -12.09, 94.84 -10.75, 101 -8.11" stroke="#1e1e1e" stroke-width="2.5" fill="none"></path></g></g><mask></mask><g stroke-linecap="round" transform="translate(10 10) rotate(0 116.80801563307244 35.43613957407811)"><path d="M17.72 0 C87.55 0.16, 156.85 0.15, 215.9 0 M17.72 0 C61.71 -0.44, 106.97 0.21, 215.9 0 M215.9 0 C227.67 -0.88, 235.09 6.99, 233.62 17.72 M215.9 0 C225.72 2.26, 235.47 5.22, 233.62 17.72 M233.62 17.72 C232.26 27.93, 232.4 37.23, 233.62 53.15 M233.62 17.72 C234.26 27.35, 234.36 38.28, 233.62 53.15 M233.62 53.15 C233.83 65.92, 228.21 71.63, 215.9 70.87 M233.62 53.15 C235.32 62.9, 229.81 69.9, 215.9 70.87 M215.9 70.87 C155.66 69.53, 92.46 69.65, 17.72 70.87 M215.9 70.87 C166.39 71.64, 118.31 71.8, 17.72 70.87 M17.72 70.87 C5.18 71.24, -0.64 66.84, 0 53.15 M17.72 70.87 C4 69.51, 0.66 63.84, 0 53.15 M0 53.15 C1.22 41.24, 2.24 29.78, 0 17.72 M0 53.15 C1.28 41.96, -0.63 31.55, 0 17.72 M0 17.72 C-0.11 7.32, 7.29 -1.5, 17.72 0 M0 17.72 C1.79 4.91, 6.66 -1.3, 17.72 0" stroke="#2f9e44" stroke-width="2" fill="none"></path></g><g transform="translate(58.40801410719354 32.93613957407811) rotate(0 68.4000015258789 12.5)"><text x="68.4000015258789" y="0" font-family="Virgil, Segoe UI Emoji" font-size="20px" fill="#2f9e44" text-anchor="middle" style="white-space: pre;" direction="ltr" dominant-baseline="text-before-edge">catppuccin.css</text></g><g stroke-linecap="round"><g transform="translate(247.9773558836028 47.85952637908878) rotate(0 59.37297672275986 0)"><path d="M-0.75 0.2 C19.22 0.2, 99.87 0.34, 119.79 0.4" stroke="#1e1e1e" stroke-width="2.5" fill="none" stroke-dasharray="8 10"></path></g><g transform="translate(247.9773558836028 47.85952637908878) rotate(0 59.37297672275986 0)"><path d="M96.27 8.9 C103.63 8.23, 111.03 3.99, 119.79 0.4" stroke="#1e1e1e" stroke-width="2.5" fill="none"></path></g><g transform="translate(247.9773558836028 47.85952637908878) rotate(0 59.37297672275986 0)"><path d="M96.31 -8.2 C103.71 -3.74, 111.1 -2.85, 119.79 0.4" stroke="#1e1e1e" stroke-width="2.5" fill="none"></path></g></g><mask></mask></svg>